<svg width="182" height="65" viewBox="0 0 182 65" fill="none" xmlns="http://www.w3.org/2000/svg">
<path d="M94.4592 1.00684H100.78V29.1137H94.4592V17.2614H83.8487V29.1137H77.5273V1.00684H83.8487V11.7303H94.4592V1.00684Z" fill="white"/>
<path d="M107.214 29.0009V0.894043H126.178V6.19934H113.535V11.7304H124.71V16.9228H113.535V23.6956H127.08V29.0009H107.214Z" fill="white"/>
<path d="M152.253 29.0008C151.914 27.9849 151.576 26.969 151.237 25.9531C150.898 24.9371 150.56 23.9212 150.108 22.9053H139.159C138.82 23.9212 138.482 24.9371 138.143 25.9531C137.804 26.969 137.466 27.9849 137.127 29.0008H130.58C131.596 25.9531 132.612 23.1311 133.628 20.6478C134.531 18.0515 135.547 15.6811 136.45 13.4235C137.353 11.1659 138.256 9.02123 139.159 6.98942C140.062 4.9576 140.965 2.92578 141.868 1.00684H147.851C148.754 2.92578 149.657 4.9576 150.56 6.98942C151.463 9.02123 152.366 11.1659 153.269 13.4235C154.172 15.6811 155.075 18.0515 156.091 20.6478C156.994 23.244 158.01 25.9531 159.138 29.0008H152.253ZM144.69 7.32805C144.577 7.77957 144.351 8.34396 144.126 9.02124C143.9 9.69851 143.561 10.4887 143.222 11.5046C142.884 12.4076 142.432 13.4235 142.094 14.5523C141.755 15.6811 141.191 16.8099 140.739 18.0515H148.754C148.302 16.8099 147.963 15.6811 147.512 14.5523C147.06 13.4235 146.722 12.4076 146.383 11.5046C146.044 10.6015 145.706 9.81139 145.48 9.02124C145.029 8.23109 144.803 7.66669 144.69 7.32805Z" fill="white"/>
<path d="M181.715 1.00684V6.42502H173.249V29.1137H166.928V6.42502H158.462V1.00684H181.715Z" fill="white"/>
<path d="M96.8296 41.756C97.1682 42.7719 97.3938 43.9007 97.7324 45.1423C98.0711 46.384 98.4097 47.6256 98.8612 48.9802C99.3127 50.3347 99.6515 51.6893 100.103 52.931C100.555 54.2855 100.893 55.5272 101.345 56.656C101.683 55.4143 102.022 54.0598 102.361 52.5923C102.699 51.1249 103.038 49.6575 103.264 48.0772C103.602 46.4969 103.828 45.0294 104.167 43.4491C104.392 41.8688 104.731 40.4014 104.957 39.0469H110.826C109.923 43.2234 109.02 47.5128 107.892 51.8022C106.763 56.0916 105.634 60.1552 104.279 64.106H99.0872C98.297 61.7355 97.3938 59.3651 96.6036 56.7688C95.8135 54.1726 95.0235 51.6893 94.2333 49.0931C93.4432 51.6893 92.6529 54.1726 91.8628 56.7688C91.0726 59.3651 90.2826 61.7355 89.4925 64.106H84.3C83.0583 60.2681 81.8167 56.0916 80.6879 51.8022C79.5591 47.5128 78.656 43.2234 77.7529 39.0469H83.8485C84.0743 40.5143 84.4129 41.9817 84.6386 43.4491C84.9773 45.0294 85.2031 46.4969 85.5417 48.0772C85.8804 49.6575 86.2189 51.1249 86.5575 52.5923C86.8962 54.0598 87.2347 55.4143 87.5733 56.656C88.0248 55.5272 88.4765 54.1726 88.8151 52.931C89.2666 51.5764 89.6054 50.3347 90.0569 48.9802C90.5084 47.6256 90.8469 46.384 91.0727 45.1423C91.4113 43.9007 91.75 42.7719 91.9758 41.8688H96.8296V41.756Z" fill="white"/>
<path d="M130.016 64.1059C129.79 63.2029 129.451 62.2998 129.113 61.3968C128.774 60.4938 128.435 59.5907 128.097 58.6877H118.276C117.938 59.5907 117.599 60.4938 117.373 61.3968C117.035 62.2998 116.809 63.2029 116.47 64.1059H110.601C111.504 61.3968 112.407 58.9135 113.31 56.6559C114.213 54.3983 115.003 52.2536 115.793 50.2218C116.583 48.19 117.373 46.271 118.163 44.465C118.954 42.6589 119.744 40.8528 120.647 39.1597H125.952C126.742 40.8528 127.532 42.6589 128.435 44.465C129.226 46.271 130.016 48.19 130.806 50.2218C131.596 52.2536 132.499 54.3983 133.289 56.6559C134.192 58.9135 134.982 61.3968 135.998 64.1059H130.016ZM123.243 44.6907C123.13 45.0294 122.904 45.5938 122.679 46.1581C122.453 46.8354 122.114 47.5127 121.888 48.3029C121.55 49.093 121.211 49.996 120.872 51.0119C120.534 52.0279 120.082 53.0438 119.744 54.0597H126.855C126.516 52.9309 126.065 51.915 125.726 50.8991C125.388 49.8832 125.049 48.9801 124.71 48.19C124.372 47.3998 124.146 46.6097 123.807 46.0453C123.582 45.5938 123.356 45.0294 123.243 44.6907Z" fill="white"/>
<path d="M144.69 64.106C143.674 61.9613 142.658 59.8166 141.755 57.559C140.739 55.3014 139.836 53.0438 139.046 50.8991C138.143 48.6416 137.353 46.6097 136.676 44.5779C135.998 42.5461 135.321 40.74 134.757 39.1597H140.965C141.417 40.6272 141.981 42.2075 142.546 43.7878C143.11 45.481 143.674 47.1741 144.352 48.7544C144.916 50.4476 145.48 52.0279 146.045 53.4953C146.609 55.0756 147.061 56.3173 147.625 57.4461C148.077 56.3173 148.641 55.0756 149.205 53.4953C149.77 52.0279 150.334 50.3347 150.899 48.7544C151.463 47.0613 152.027 45.481 152.705 43.7878C153.269 42.0946 153.833 40.5143 154.285 39.0469H160.268C159.703 40.6272 159.026 42.4332 158.349 44.465C157.671 46.4969 156.768 48.6416 155.978 50.7863C155.075 53.0438 154.172 55.3014 153.269 57.559C152.253 59.8166 151.35 61.9613 150.334 64.106H144.69Z" fill="white"/>
<path d="M163.992 64.106V39.0469H180.924V43.7878H169.636V48.7544H179.682V53.3825H169.636V59.3651H181.714V64.106H163.992Z" fill="white"/>
<path d="M59.5808 44.2395H51.6793C50.3248 44.2395 49.0829 43.3365 48.6314 41.9819L37.7952 4.95767C37.2308 2.92585 38.6981 0.894043 40.8428 0.894043H48.7443C50.0989 0.894043 51.3405 1.79707 51.792 3.15162L62.6285 40.1759C63.1929 42.2077 61.7255 44.2395 59.5808 44.2395ZM46.9382 60.494L37.2308 27.1948C36.8921 25.9531 35.7632 25.163 34.5215 25.163H27.0717C25.1527 25.163 23.798 26.969 24.3624 28.7751L34.0701 62.0743C34.4087 63.316 35.5374 64.1062 36.7791 64.1062H44.2292C46.0353 64.1062 47.3897 62.3001 46.9382 60.494ZM20.7503 42.4334L12.0587 12.5206C11.7201 11.3918 10.7042 10.7145 9.57546 10.7145H2.57703C0.883846 10.7145 -0.358041 12.4077 0.0934741 13.988L8.78536 43.9009C9.124 45.0296 10.1399 45.7069 11.2686 45.7069H18.2671C19.9603 45.7069 21.2019 44.1266 20.7503 42.4334Z" fill="url(#paint0_linear_1_969)"/>
<defs>
<linearGradient id="paint0_linear_1_969" x1="-0.0890393" y1="32.5369" x2="62.7346" y2="32.5369" gradientUnits="userSpaceOnUse">
<stop stop-color="#FFF400"/>
<stop offset="1" stop-color="#FFC400"/>
</linearGradient>
</defs>
</svg>
